<svg width="56" height="56" viewBox="0 0 56 56" fill="none" xmlns="http://www.w3.org/2000/svg">
<rect width="56" height="56" rx="28" fill="#C0C2C4"/>
<path d="M45 30.4835C45 21.3837 37.608 14 28.5 14C19.392 14 12 21.3837 12 30.4835C12 35.4954 14.277 40.0122 17.841 43.0441C17.874 43.0771 17.907 43.0771 17.907 43.1101C18.204 43.3411 18.501 43.5721 18.831 43.8031C18.996 43.9021 19.128 44.0321 19.293 44.1641C22.0198 46.0128 25.2386 47.0007 28.533 47C31.8274 47.0007 35.0462 46.0128 37.773 44.1641C37.938 44.0651 38.07 43.9351 38.235 43.8341C38.532 43.6051 38.862 43.3741 39.159 43.1431C39.192 43.1101 39.225 43.1101 39.225 43.0771C42.723 40.0102 45 35.4954 45 30.4835ZM28.5 44.9231C25.398 44.9231 22.56 43.9331 20.217 42.2851C20.25 42.0211 20.316 41.7592 20.382 41.4952C20.5786 40.7797 20.867 40.0927 21.24 39.4513C21.603 38.8243 22.032 38.2632 22.56 37.7682C23.055 37.2732 23.649 36.8133 24.243 36.4503C24.87 36.0873 25.53 35.8233 26.256 35.6253C26.9876 35.4281 27.7422 35.3289 28.5 35.3304C30.7495 35.3144 32.9163 36.1773 34.539 37.7353C35.298 38.4943 35.892 39.3853 36.321 40.4062C36.552 41.0002 36.717 41.6272 36.816 42.2851C34.3806 43.9973 31.4771 44.9183 28.5 44.9231ZM23.451 29.6606C23.1602 28.9948 23.014 28.275 23.022 27.5486C23.022 26.8246 23.154 26.0986 23.451 25.4386C23.748 24.7786 24.144 24.1867 24.639 23.6917C25.134 23.1967 25.728 22.8028 26.388 22.5058C27.048 22.2087 27.774 22.0767 28.5 22.0767C29.259 22.0767 29.952 22.2087 30.612 22.5058C31.272 22.8028 31.866 23.1987 32.361 23.6917C32.856 24.1867 33.252 24.7807 33.549 25.4386C33.846 26.0986 33.978 26.8246 33.978 27.5486C33.978 28.3076 33.846 29.0006 33.549 29.6585C33.2624 30.3087 32.8598 30.9014 32.361 31.4075C31.8547 31.9056 31.2621 32.3074 30.612 32.5934C29.2483 33.1538 27.7187 33.1538 26.355 32.5934C25.7049 32.3074 25.1123 31.9056 24.606 31.4075C24.1065 30.9088 23.7135 30.3137 23.451 29.6585V29.6606ZM38.763 40.6042C38.763 40.5382 38.73 40.5052 38.73 40.4392C38.4054 39.4067 37.9271 38.4291 37.311 37.5393C36.6944 36.6429 35.9365 35.8524 35.067 35.1984C34.4029 34.6988 33.6831 34.278 32.922 33.9444C33.2683 33.7159 33.5891 33.4511 33.879 33.1544C34.371 32.6687 34.8031 32.1259 35.166 31.5374C35.8969 30.3367 36.2743 28.9541 36.255 27.5486C36.2652 26.5081 36.0631 25.4764 35.661 24.5167C35.264 23.5919 34.6926 22.7523 33.978 22.0437C33.2645 21.3426 32.4247 20.7827 31.503 20.3937C30.5417 19.9924 29.5087 19.791 28.467 19.8018C27.4252 19.7916 26.3922 19.9937 25.431 20.3958C24.5013 20.7839 23.6595 21.3557 22.956 22.0767C22.2548 22.7895 21.695 23.6286 21.306 24.5497C20.9039 25.5094 20.7018 26.5411 20.712 27.5816C20.712 28.3076 20.811 29.0006 21.009 29.6585C21.207 30.3515 21.471 30.9785 21.834 31.5704C22.164 32.1644 22.626 32.6924 23.121 33.1874C23.418 33.4844 23.748 33.7464 24.111 33.9774C23.3475 34.3199 22.6275 34.7519 21.966 35.2644C21.108 35.9244 20.349 36.7143 19.722 37.5723C19.0997 38.4584 18.6208 39.437 18.303 40.4722C18.27 40.5382 18.27 40.6042 18.27 40.6372C15.663 37.9992 14.046 34.4394 14.046 30.4835C14.046 22.5387 20.547 16.0439 28.5 16.0439C36.453 16.0439 42.954 22.5387 42.954 30.4835C42.9497 34.2784 41.4428 37.9172 38.763 40.6042Z" fill="#726464"/>
</svg>
